<svg width="35" height="35" viewBox="0 0 35 35" fill="none" xmlns="http://www.w3.org/2000/svg">
<path d="M25.1273 17.5621C24.4547 17.2424 23.7685 16.967 23.0702 16.7363C25.3317 15.0388 26.7973 12.3358 26.7973 9.29688C26.7973 4.17061 22.6268 0 17.5005 0C12.3741 0 8.20359 4.17061 8.20359 9.29688C8.20359 12.3391 9.67249 15.0448 11.9383 16.742C9.86233 17.4254 7.91443 18.4889 6.20954 19.8912C3.08333 22.4627 0.90971 26.0494 0.0891924 29.9908C-0.167976 31.2258 0.14012 32.4943 0.934319 33.4709C1.72462 34.4427 2.89651 35 4.1494 35H20.9868C21.7419 35 22.354 34.3879 22.354 33.6328C22.354 32.8777 21.7419 32.2656 20.9868 32.2656H4.1494C3.56574 32.2656 3.21363 31.9398 3.05572 31.7457C2.78303 31.4104 2.67748 30.9739 2.76615 30.5481C4.18494 23.733 10.1962 18.7547 17.138 18.5868C17.2583 18.5914 17.3791 18.5938 17.5005 18.5938C17.623 18.5938 17.745 18.5914 17.8665 18.5866C19.9938 18.6365 22.0398 19.122 23.9534 20.0318C24.6355 20.3558 25.451 20.0659 25.7752 19.3838C26.0993 18.7019 25.8093 17.8863 25.1273 17.5621ZM17.8339 15.851C17.723 15.849 17.6118 15.848 17.5005 15.848C17.3901 15.848 17.2798 15.8491 17.1696 15.8511C13.7041 15.6782 10.938 12.8045 10.938 9.29688C10.938 5.67827 13.8819 2.73438 17.5005 2.73438C21.1191 2.73438 24.063 5.67827 24.063 9.29688C24.063 12.8036 21.2982 15.6768 17.8339 15.851Z" fill="blue"/>
<path d="M33.6328 27.1387H29.873V23.3789C29.873 22.6238 29.261 22.0117 28.5059 22.0117C27.7508 22.0117 27.1387 22.6238 27.1387 23.3789V27.1387H23.3789C22.6238 27.1387 22.0117 27.7508 22.0117 28.5059C22.0117 29.261 22.6238 29.873 23.3789 29.873H27.1387V33.6328C27.1387 34.3879 27.7508 35 28.5059 35C29.261 35 29.873 34.3879 29.873 33.6328V29.873H33.6328C34.3879 29.873 35 29.261 35 28.5059C35 27.7508 34.3879 27.1387 33.6328 27.1387Z" fill="blue"/>
</svg>
