<svg viewBox="0 0 30 24" fill="none" xmlns="http://www.w3.org/2000/svg">
<path d="M5 0H1C0.448 0 0 0.448 0 1V5C0 5.552 0.448 6 1 6C1.552 6 2 5.552 2 5V2H5C5.552 2 6 1.552 6 1C6 0.448 5.552 0 5 0Z" fill="white"/>
<path d="M29 18C28.448 18 28 18.448 28 19V22H25C24.448 22 24 22.448 24 23C24 23.552 24.448 24 25 24H29C29.552 24 30 23.552 30 23V19C30 18.448 29.552 18 29 18Z" fill="white"/>
<path d="M29 0H25C24.448 0 24 0.448 24 1C24 1.552 24.448 2 25 2H28V5C28 5.552 28.448 6 29 6C29.552 6 30 5.552 30 5V1C30 0.448 29.552 0 29 0Z" fill="white"/>
<path d="M5 22H2V19C2 18.448 1.552 18 1 18C0.448 18 0 18.448 0 19V23C0 23.552 0.448 24 1 24H5C5.552 24 6 23.552 6 23C6 22.448 5.552 22 5 22Z" fill="white"/>
<path d="M5 4C4.448 4 4 4.448 4 5V19C4 19.552 4.448 20 5 20C5.552 20 6 19.552 6 19V5C6 4.448 5.552 4 5 4Z" fill="white"/>
<path d="M9 4C8.448 4 8 4.448 8 5V15C8 15.552 8.448 16 9 16C9.552 16 10 15.552 10 15V5C10 4.448 9.552 4 9 4Z" fill="white"/>
<path d="M13 4C12.448 4 12 4.448 12 5V15C12 15.552 12.448 16 13 16C13.552 16 14 15.552 14 15V5C14 4.448 13.552 4 13 4Z" fill="white"/>
<path d="M17 4C16.448 4 16 4.448 16 5V19C16 19.552 16.448 20 17 20C17.552 20 18 19.552 18 19V5C18 4.448 17.552 4 17 4Z" fill="white"/>
<path d="M21 4C20.448 4 20 4.448 20 5V15C20 15.552 20.448 16 21 16C21.552 16 22 15.552 22 15V5C22 4.448 21.552 4 21 4Z" fill="white"/>
<path d="M25 4C24.448 4 24 4.448 24 5V19C24 19.552 24.448 20 25 20C25.552 20 26 19.552 26 19V5C26 4.448 25.552 4 25 4Z" fill="white"/>
<path d="M9.04003 18H9.02003C8.46803 18 8.03003 18.448 8.03003 19C8.03003 19.552 8.48803 20 9.04003 20C9.59203 20 10.04 19.552 10.04 19C10.04 18.448 9.59203 18 9.04003 18Z" fill="white"/>
<path d="M13.04 18H13.02C12.468 18 12.03 18.448 12.03 19C12.03 19.552 12.488 20 13.04 20C13.592 20 14.04 19.552 14.04 19C14.04 18.448 13.592 18 13.04 18Z" fill="white"/>
<path d="M21.01 18H20.99C20.438 18 20 18.448 20 19C20 19.552 20.458 20 21.01 20C21.562 20 22.01 19.552 22.01 19C22.01 18.448 21.562 18 21.01 18Z" fill="white"/>
</svg>
