<svg viewBox="0 0 35 35" fill="none" xmlns="http://www.w3.org/2000/svg">
<g clip-path="url(#clip0)">
<path d="M32.5026 12.0931C32.3611 11.0291 32.3411 9.19657 33.3294 8.58124C33.347 8.56996 33.3602 8.55366 33.3756 8.53967C34.1836 8.28125 34.7427 7.91859 34.3038 7.43059L22.3856 3.83949L3.08719 6.52258C3.08719 6.52258 0.877288 6.83844 1.0747 10.2718C1.18187 12.1405 1.76796 13.0582 2.2805 13.5099L0.696898 13.9871C0.257361 14.4751 0.816392 14.8379 1.62444 15.0959C1.63979 15.1103 1.65274 15.1265 1.67071 15.1378C2.65831 15.7536 2.6393 17.5859 2.49724 18.6501C-1.0507 19.6575 0.222892 19.9858 0.222892 19.9858L1.00117 20.1742C0.453732 20.6689 -0.0899441 21.6069 0.0118973 23.3861C0.209417 26.8188 2.0246 27.0557 2.0246 27.0557L14.6533 31.1605L33.7149 26.5435C33.7149 26.5435 34.9889 26.2147 31.44 25.2071C31.2974 24.1446 31.2775 22.3125 32.2674 21.6951C32.2856 21.6841 32.2988 21.6675 32.3136 21.6537C33.1216 21.3953 33.6802 21.033 33.2412 20.545L32.4127 20.2948C32.9653 19.9616 33.7952 19.0908 33.9253 16.8287C34.015 15.2728 33.6091 14.3616 33.1393 13.8251L34.7769 13.4288C34.777 13.4294 36.051 13.1006 32.5026 12.0931ZM16.5588 12.0491L19.7642 11.3903L30.5968 9.16419L32.2107 8.83224C31.695 9.77608 31.7166 11.0677 31.802 11.8979C31.8207 12.0857 31.8422 12.2573 31.8631 12.3876L30.0966 12.8268L16.424 16.2281L16.5588 12.0491ZM2.7895 15.3898L4.40319 15.7218L14.8064 17.8603L15.7152 18.0465L18.4407 18.6066L18.5751 22.7858L4.52269 19.2897L3.13733 18.9454C3.1577 18.8148 3.17922 18.6435 3.19875 18.4552C3.28356 17.6256 3.3056 16.3336 2.7895 15.3898ZM2.16258 10.1066C2.14305 9.19334 2.30578 8.53288 2.6347 8.19717C2.84403 7.98283 3.09106 7.93823 3.26048 7.93823C3.35 7.93823 3.41444 7.95066 3.41883 7.95066L11.734 10.6615L15.8825 12.0141L15.7464 16.2224L4.10811 12.9595L3.49393 12.7875C3.47137 12.7811 3.44077 12.7767 3.41716 12.7757C3.36922 12.7722 2.21856 12.6663 2.16258 10.1066ZM14.6834 29.3373L2.43123 25.9023C2.40856 25.8957 2.37827 25.8913 2.35467 25.8901C2.30589 25.8869 1.15471 25.7811 1.09904 23.222C1.07919 22.3076 1.24277 21.6478 1.57106 21.3118C1.78091 21.0974 2.02804 21.0528 2.19715 21.0528C2.28688 21.0528 2.35111 21.0648 2.35582 21.0648C2.35582 21.0648 2.35634 21.0648 2.35582 21.0648L14.8187 25.1289L14.6834 29.3373ZM30.7383 25.0122C30.7576 25.2007 30.7792 25.3718 30.8001 25.5024L15.3607 29.3433L15.4956 25.1641L18.7965 24.4855L19.2839 24.6034L21.111 24.0096L29.5331 22.2789L31.1477 21.9467C30.6315 22.8905 30.6529 24.1827 30.7383 25.0122ZM31.5888 19.3326C31.5607 19.3332 31.5326 19.337 31.5062 19.3453L30.3417 19.6713L19.2543 22.7803L19.1187 18.572L22.7564 17.3855L31.5645 14.5129C31.5657 14.5124 32.0279 14.4097 32.3672 14.7547C32.6956 15.0904 32.8585 15.7509 32.8393 16.6641C32.7818 19.223 31.6307 19.3293 31.5888 19.3326Z" fill="#3E3C37"/>
</g>
<defs>
<clipPath id="clip0">
<rect width="35" height="35" fill="transparent"/>
</clipPath>
</defs>
</svg>
