<svg viewBox="0 0 30 24" xmlns="http://www.w3.org/2000/svg">
<path d="M5 0H1C0.448 0 0 0.448 0 1V5C0 5.552 0.448 6 1 6C1.552 6 2 5.552 2 5V2H5C5.552 2 6 1.552 6 1C6 0.448 5.552 0 5 0Z" fill="white"/>
<path d="M29 18C28.448 18 28 18.448 28 19V22H25C24.448 22 24 22.448 24 23C24 23.552 24.448 24 25 24H29C29.552 24 30 23.552 30 23V19C30 18.448 29.552 18 29 18Z" fill="white"/>
<path d="M29 0H25C24.448 0 24 0.448 24 1C24 1.552 24.448 2 25 2H28V5C28 5.552 28.448 6 29 6C29.552 6 30 5.552 30 5V1C30 0.448 29.552 0 29 0Z" fill="white"/>
<path d="M5 22H2V19C2 18.448 1.552 18 1 18C0.448 18 0 18.448 0 19V23C0 23.552 0.448 24 1 24H5C5.552 24 6 23.552 6 23C6 22.448 5.552 22 5 22Z" fill="white"/>
</svg>
