<svg viewBox="0 0 24 24" fill="none" xmlns="http://www.w3.org/2000/svg">
<path d="M22.8956 4.12098L20.6603 1.87783C19.9982 1.21294 19.1171 0.846191 18.1795 0.846191C17.2418 0.846191 16.3607 1.2124 15.6987 1.87729L3.27106 14.3472C3.21993 14.3985 3.17794 14.4563 3.14134 14.5163C3.13058 14.5335 3.1225 14.5508 3.11281 14.5692C3.08698 14.6189 3.06545 14.6702 3.0493 14.7231C3.04553 14.7345 3.038 14.7453 3.03531 14.7572L0.878007 22.7651C0.792425 23.0827 0.882313 23.4219 1.11376 23.6541C1.28761 23.8281 1.52121 23.9231 1.76073 23.9231C1.84039 23.9231 1.92059 23.9123 1.99918 23.8912L9.63639 21.8193C9.69721 21.8317 9.75964 21.8388 9.82154 21.8388C10.0562 21.8388 10.2898 21.7491 10.4685 21.5698L22.8956 9.10041C23.5582 8.43551 23.9237 7.55079 23.9231 6.61043C23.9237 5.67007 23.5587 4.78588 22.8956 4.12098ZM9.82208 19.6221L5.21252 14.9964L15.0243 5.15046L19.6344 9.77557L9.82208 19.6221ZM3.06007 21.7016L4.38954 16.7675L7.97697 20.3675L3.06007 21.7016ZM21.6016 7.80195L20.9288 8.4771L16.3187 3.852L16.9926 3.1763C17.6267 2.54003 18.7322 2.54003 19.3663 3.1763L21.6016 5.41999C21.9187 5.73812 22.0936 6.16158 22.0936 6.61151C22.0936 7.06143 21.9192 7.48381 21.6016 7.80195Z" fill="#3E3C37"/>
<path d="M14.9032 8.59925L9.16113 14.3613L10.4552 15.6599L16.1972 9.89779L14.9032 8.59925Z" fill="#3E3C37"/>
</svg>
