<svg viewBox="0 0 30 30" fill="none" xmlns="http://www.w3.org/2000/svg">
<path d="M28.2422 5.27344C28.2422 3.86536 27.6812 2.53899 26.6627 1.539C25.6519 0.54657 24.3194 0 22.9102 0C20.0024 0 17.6367 2.36572 17.6367 5.27344C17.6367 8.18115 20.0024 10.5469 22.9102 10.5469C24.3194 10.5469 25.6519 10.0003 26.6627 9.00787C27.6812 8.00789 28.2422 6.68152 28.2422 5.27344ZM22.9102 8.78906C20.9715 8.78906 19.3945 7.21207 19.3945 5.27344C19.3945 3.33481 20.9715 1.75781 22.9102 1.75781C24.8811 1.75781 26.4844 3.33481 26.4844 5.27344C26.4844 7.21207 24.8811 8.78906 22.9102 8.78906Z" fill="#3E3C37"/>
<path d="M15.8203 5.27344C15.8203 3.33481 14.2433 1.75781 12.3047 1.75781C10.3661 1.75781 8.78906 3.33481 8.78906 5.27344C8.78906 7.21207 10.3661 8.78906 12.3047 8.78906C14.2433 8.78906 15.8203 7.21207 15.8203 5.27344ZM12.3047 7.03125C11.3354 7.03125 10.5469 6.24275 10.5469 5.27344C10.5469 4.30412 11.3354 3.51562 12.3047 3.51562C13.274 3.51562 14.0625 4.30412 14.0625 5.27344C14.0625 6.24275 13.274 7.03125 12.3047 7.03125Z" fill="#3E3C37"/>
<path d="M0 13.1836V21.1523H7.03125V24.668H15.8203V30H30V17.5781C30 13.7011 26.8195 10.5469 22.9102 10.5469C20.7337 10.5469 18.7836 11.5247 17.4822 13.0602C17.0128 10.6302 14.8698 8.78906 12.3047 8.78906C10.6018 8.78906 9.08501 9.60068 8.12027 10.8572C7.34276 9.61647 5.96375 8.78906 4.39453 8.78906C1.97136 8.78906 0 10.7604 0 13.1836H0ZM22.9102 12.3047C25.8504 12.3047 28.2422 14.6704 28.2422 17.5781V28.2422H17.5781C17.5781 27.6052 17.5781 18.1352 17.5781 17.5781C17.5781 14.6704 19.9699 12.3047 22.9102 12.3047ZM12.3047 10.5469C14.2433 10.5469 15.8203 12.1239 15.8203 14.0625V22.9102H8.78906C8.78906 22.0491 8.78906 15.0664 8.78906 14.0625C8.78906 12.1239 10.3661 10.5469 12.3047 10.5469ZM1.75781 13.1836C1.75781 11.7297 2.94067 10.5469 4.39453 10.5469C5.84839 10.5469 7.03125 11.7297 7.03125 13.1836V19.3945H1.75781V13.1836Z" fill="#3E3C37"/>
<path d="M7.03125 6.15234C7.03125 4.69849 5.84839 3.51562 4.39453 3.51562C2.94067 3.51562 1.75781 4.69849 1.75781 6.15234C1.75781 7.6062 2.94067 8.78906 4.39453 8.78906C5.84839 8.78906 7.03125 7.6062 7.03125 6.15234ZM4.39453 7.03125C3.90999 7.03125 3.51562 6.63689 3.51562 6.15234C3.51562 5.6678 3.90999 5.27344 4.39453 5.27344C4.87907 5.27344 5.27344 5.6678 5.27344 6.15234C5.27344 6.63689 4.87907 7.03125 4.39453 7.03125Z" fill="#3E3C37"/>
</svg>
