<svg viewBox="0 0 28 31" fill="none" xmlns="http://www.w3.org/2000/svg">
<path d="M14.0001 17.2426C4.98621 17.2426 0.0219727 21.5939 0.0219727 29.495C0.0219727 30.1121 0.512109 30.6122 1.11686 30.6122H26.8833C27.488 30.6122 27.9782 30.1121 27.9782 29.495C27.9782 21.5943 23.014 17.2426 14.0001 17.2426ZM2.25158 28.3778C2.68225 22.4702 6.6293 19.4771 14.0001 19.4771C21.3709 19.4771 25.318 22.4702 25.749 28.3778H2.25158Z" fill="red"/>
<path d="M13.9998 0C9.85929 0 6.73706 3.25004 6.73706 7.55961C6.73706 11.9954 9.99511 15.6037 13.9998 15.6037C18.0045 15.6037 21.2626 11.9954 21.2626 7.55997C21.2626 3.25004 18.1404 0 13.9998 0ZM13.9998 13.3696C11.2024 13.3696 8.92683 10.7634 8.92683 7.55997C8.92683 4.47417 11.0604 2.23445 13.9998 2.23445C16.8922 2.23445 19.0728 4.52368 19.0728 7.55997C19.0728 10.7634 16.7973 13.3696 13.9998 13.3696Z" fill="red"/>
</svg>
