<svg viewBox="0 0 30 30" fill="none" xmlns="http://www.w3.org/2000/svg">
<path d="M25.8571 0H21.9591H8.04067H4.14254C2.34671 0 0.885498 1.46171 0.885498 3.25713V26.7428C0.885498 28.5385 2.34671 29.9999 4.14254 29.9999H10.4534H19.5465H25.857C27.6531 29.9999 29.1143 28.5384 29.1143 26.7428V3.25713C29.1145 1.46171 27.6533 0 25.8571 0ZM21.1448 1.62857V11.882H8.85508V1.62857H21.1448ZM11.2675 28.3714V20.5003H18.7322V28.3714H11.2675ZM27.4858 26.7428C27.4858 27.6406 26.7553 28.3714 25.8572 28.3714H20.3609V19.6861C20.3609 19.236 19.9964 18.8718 19.5466 18.8718H10.4535C10.0037 18.8718 9.63905 19.236 9.63905 19.6861V28.3714H4.14263C3.24437 28.3714 2.51398 27.6406 2.51398 26.7428V3.25713C2.51398 2.35946 3.24446 1.62857 4.14263 1.62857H7.22643V12.6963C7.22643 13.1457 7.591 13.5107 8.04076 13.5107H21.9593C22.4089 13.5107 22.7735 13.1457 22.7735 12.6963V1.62857H25.8573C26.7556 1.62857 27.4859 2.35946 27.4859 3.25713L27.4858 26.7428Z" fill="#3E3C37"/>
<path d="M10.684 10.4192H19.3159C19.7656 10.4192 20.1301 10.0542 20.1301 9.60476C20.1301 9.15475 19.7656 8.79053 19.3159 8.79053H10.684C10.2343 8.79053 9.86963 9.15475 9.86963 9.60476C9.86963 10.0542 10.2343 10.4192 10.684 10.4192Z" fill="#3E3C37"/>
<path d="M10.684 7.56957H19.3159C19.7656 7.56957 20.1301 7.20458 20.1301 6.75516C20.1301 6.30506 19.7656 5.94092 19.3159 5.94092H10.684C10.2343 5.94092 9.86963 6.30506 9.86963 6.75516C9.86963 7.20467 10.2343 7.56957 10.684 7.56957Z" fill="#3E3C37"/>
<path d="M10.684 4.71979H19.3159C19.7656 4.71979 20.1301 4.35489 20.1301 3.90555C20.1301 3.45545 19.7656 3.09131 19.3159 3.09131H10.684C10.2343 3.09131 9.86963 3.45545 9.86963 3.90555C9.86963 4.35489 10.2343 4.71979 10.684 4.71979Z" fill="#3E3C37"/>
<path d="M17.1377 21.314C16.6877 21.314 16.3232 21.679 16.3232 22.1282V24.4358C16.3232 24.8852 16.6877 25.2502 17.1377 25.2502C17.5873 25.2502 17.952 24.8852 17.952 24.4358V22.1282C17.9519 21.679 17.5872 21.314 17.1377 21.314Z" fill="#3E3C37"/>
</svg>
