<svg viewBox="0 0 30 30" fill="none" xmlns="http://www.w3.org/2000/svg">
<path d="M29.3878 19.5918H26.0204V0.612245C26.0204 0.274102 25.7463 0 25.4082 0H19.2857C18.9476 0 18.6735 0.274102 18.6735 0.612245V19.5918H17.449V0.612245C17.449 0.274102 17.1749 0 16.8367 0H4.59184C4.25369 0 3.97959 0.274102 3.97959 0.612245V19.5918H0.612245C0.274102 19.5918 0 19.866 0 20.2041V24.4898C0 24.8279 0.274102 25.102 0.612245 25.102H3.06122V29.3878C3.06122 29.7258 3.33533 30 3.67347 30H6.73469C7.07284 30 7.34694 29.7258 7.34694 29.3878V25.102H22.6531V29.3878C22.6531 29.7258 22.9272 30 23.2653 30H26.3265C26.6647 30 26.9388 29.7258 26.9388 29.3878V25.102H29.3878C29.7259 25.102 30 24.8279 30 24.4898V20.2041C30 19.866 29.7259 19.5918 29.3878 19.5918ZM19.898 1.22449H24.7959V17.449H22.0408V18.6735H24.7959V19.5918H19.898V1.22449ZM11.3265 1.22449H16.2245V19.5918H11.3265V1.22449ZM7.34694 1.22449H7.95918V14.0816H7.34694V1.22449ZM5.20408 1.22449H6.12245V14.6939C6.12245 15.032 6.39655 15.3061 6.73469 15.3061H8.57143C8.90957 15.3061 9.18367 15.032 9.18367 14.6939V1.22449H10.102V17.449H7.34694V18.6735H10.102V19.5918H5.20408V1.22449ZM6.12245 28.7755H4.28571V25.102H6.12245V28.7755ZM25.7143 28.7755H23.8776V25.102H25.7143V28.7755ZM28.7755 23.8776H1.22449V20.8163H28.7755V23.8776Z" fill="#3E3C37"/>
<path d="M15.3062 4.59186H14.0817V9.48982H15.3062V4.59186Z" fill="#3E3C37"/>
<path d="M13.4694 4.59186H12.2449V17.1429H13.4694V4.59186Z" fill="#3E3C37"/>
<path d="M15.3061 2.14288H12.2449V3.36737H15.3061V2.14288Z" fill="#3E3C37"/>
<path d="M22.0408 11.3265H20.8163V16.2245H22.0408V11.3265Z" fill="#3E3C37"/>
<path d="M23.8776 3.67346H22.6531V16.2245H23.8776V3.67346Z" fill="#3E3C37"/>
</svg>
